<svg width="600" height="302" viewBox="0 0 600 302" fill="none" xmlns="http://www.w3.org/2000/svg">
<g transform="translate(132.5, 0)">
<path opacity="0.1" d="M9.62877 315.82C6.64403 294.694 12.4312 271.761 29.1602 252.879C74.9392 201.209 72.9897 211.584 81.0361 149.398C89.0825 87.2115 156.805 62.954 206.965 88.8746C267.692 120.253 236.181 132.047 308.592 184.441C371.184 229.732 313.177 315.124 209.885 350.937C126.403 379.883 18.2736 377.01 9.62877 315.82Z" fill="#367CFF"/>
<path d="M61.5554 134.05H255.105C259.503 134.051 263.721 135.798 266.831 138.908C269.94 142.018 271.687 146.236 271.687 150.634V297.6C271.687 301.998 269.94 306.216 266.83 309.326C263.72 312.435 259.502 314.183 255.104 314.183H54.1666C49.7685 314.183 45.5506 312.435 42.4407 309.326C39.3309 306.216 37.5837 301.998 37.5837 297.6V158.022C37.5837 151.665 40.1093 145.567 44.6048 141.072C49.1004 136.576 55.1977 134.05 61.5554 134.05Z" fill="#262626"/>
<path d="M269.573 148.118H54.1666C45.0081 148.118 37.5837 155.542 37.5837 164.701V311.667C37.5837 320.825 45.0081 328.249 54.1666 328.249H269.573C278.732 328.249 286.156 320.825 286.156 311.667V164.701C286.156 155.542 278.732 148.118 269.573 148.118Z" fill="#367CFF"/>
<path opacity="0.55" d="M269.573 148.118H54.1666C45.0081 148.118 37.5837 155.542 37.5837 164.701V311.667C37.5837 320.825 45.0081 328.249 54.1666 328.249H269.573C278.732 328.249 286.156 320.825 286.156 311.667V164.701C286.156 155.542 278.732 148.118 269.573 148.118Z" fill="#2951A0"/>
<path d="M269.573 328.845H54.1663C49.6118 328.84 45.2453 327.028 42.0248 323.808C38.8043 320.587 36.9928 316.221 36.9878 311.666V164.701C36.9929 160.146 38.8045 155.78 42.0249 152.559C45.2454 149.339 49.6118 147.527 54.1663 147.522H269.573C274.127 147.527 278.494 149.339 281.714 152.559C284.934 155.78 286.746 160.146 286.751 164.701V311.666C286.746 316.221 284.935 320.587 281.714 323.808C278.494 327.028 274.127 328.84 269.573 328.845ZM54.1663 148.712C49.9275 148.716 45.8636 150.402 42.8664 153.4C39.8692 156.397 38.1835 160.461 38.1791 164.7V311.665C38.1836 315.904 39.8693 319.967 42.8666 322.965C45.8638 325.962 49.9276 327.648 54.1663 327.652H269.573C273.812 327.648 277.875 325.962 280.872 322.965C283.87 319.967 285.555 315.904 285.56 311.665V164.701C285.555 160.462 283.87 156.398 280.873 153.401C277.875 150.404 273.812 148.718 269.573 148.713L54.1663 148.712Z" fill="#262626"/>
<path d="M267.233 315.605H262.409V314.414H267.2L267.233 315.605ZM257.617 315.605H252.824V314.414H257.616L257.617 315.605ZM248.033 315.605H243.241V314.414H248.033V315.605ZM238.45 315.605H233.658V314.414H238.448L238.45 315.605ZM228.866 315.605H224.073V314.414H228.865L228.866 315.605ZM219.283 315.605H214.491V314.414H219.283V315.605ZM209.699 315.605H204.907V314.414H209.699V315.605ZM200.115 315.605H195.324V314.414H200.115V315.605ZM190.532 315.605H185.74V314.414H190.532V315.605ZM180.948 315.605H176.156V314.414H180.948V315.605ZM171.365 315.605H166.573V314.414H171.365V315.605ZM161.781 315.605H156.989V314.414H161.781V315.605ZM152.197 315.605H147.406V314.414H152.197V315.605ZM142.614 315.605H137.822V314.414H142.614V315.605ZM133.031 315.605H128.238V314.414H133.031V315.605ZM123.447 315.605H118.655V314.414H123.447V315.605ZM113.863 315.605H109.072V314.414H113.863V315.605ZM104.28 315.605H99.4879V314.414H104.28V315.605ZM94.6959 315.605H89.9043V314.414H94.6959V315.605ZM85.1127 315.605H80.3207V314.414H85.1127V315.605ZM75.529 315.605H70.737V314.414H75.529V315.605ZM65.9454 315.605H61.1538V314.414H65.9454V315.605ZM56.3407 315.6C54.6194 315.54 52.952 314.984 51.5387 313.999L52.2194 313.021C53.4445 313.876 54.8904 314.359 56.3832 314.411L56.3407 315.6ZM272.087 314.162L271.438 313.163C272.692 312.351 273.687 311.195 274.304 309.834L275.389 310.327C274.678 311.895 273.532 313.226 272.087 314.162ZM48.3622 310.059C47.9097 308.968 47.6778 307.799 47.6799 306.619V305.124H48.8713V306.619C48.8693 307.643 49.0704 308.657 49.463 309.603L48.3622 310.059ZM276.189 305.396H274.997V300.604H276.189V305.396ZM48.8713 300.332H47.6799V295.541H48.8713V300.332ZM276.188 295.813H274.996V291.021H276.188V295.813ZM48.8713 290.749H47.6799V285.957H48.8713V290.749ZM276.188 286.229H274.996V281.437H276.188V286.229ZM48.8713 281.165H47.6799V276.373H48.8713V281.165ZM276.188 276.645H274.996V271.853H276.188V276.645ZM48.8713 271.582H47.6799V266.79H48.8713V271.582ZM276.188 267.061H274.996V262.27H276.188V267.061ZM48.8713 261.998H47.6799V257.206H48.8713V261.998ZM276.188 257.478H274.996V252.686H276.188V257.478ZM48.8713 252.414H47.6799V247.623H48.8713V252.414ZM276.188 247.894H274.996V243.103H276.188V247.894ZM48.8713 242.831H47.6799V238.039H48.8713V242.831ZM276.188 238.31H274.996V233.519H276.188V238.31ZM48.8713 233.248H47.6799V228.456H48.8713V233.248ZM276.188 228.728H274.996V223.934H276.188V228.728ZM48.8713 223.664H47.6799V218.872H48.8713V223.664ZM276.188 219.144H274.996V214.352H276.188V219.144ZM48.8713 214.08H47.6799V209.289H48.8713V214.08ZM276.188 209.559H274.996V204.769H276.188V209.559ZM48.8713 204.497H47.6799V199.705H48.8713V204.497ZM276.188 199.977H274.996V195.185H276.188V199.977ZM48.8713 194.913H47.6799V190.121H48.8713V194.913ZM276.188 190.393H274.996V185.601H276.188V190.393ZM48.8713 185.33H47.6799V180.538H48.8713V185.33ZM276.188 180.81H274.996V176.018H276.188V180.81ZM48.8713 175.746H47.6799V170.954H48.8713V175.746ZM276.188 171.226H274.996V169.748C274.999 168.719 274.796 167.7 274.4 166.75L275.501 166.291C275.957 167.386 276.191 168.56 276.19 169.746L276.188 171.226ZM49.5698 166.517L48.4857 166.023C49.1997 164.457 50.3485 163.128 51.7957 162.195L52.4422 163.195C51.1866 164.005 50.1898 165.158 49.5698 166.517ZM271.635 163.337C270.408 162.485 268.961 162.007 267.469 161.957L267.509 160.766C269.23 160.822 270.899 161.375 272.314 162.357L271.635 163.337ZM262.697 161.953H257.907V160.761H262.699L262.697 161.953ZM253.114 161.953H248.322V160.761H253.114V161.953ZM243.531 161.953H238.739V160.761H243.531L243.531 161.953ZM233.947 161.953H229.156V160.761H233.948L233.947 161.953ZM224.363 161.953H219.572V160.761H224.363V161.953ZM214.78 161.953H209.988V160.761H214.78L214.78 161.953ZM205.196 161.953H200.404V160.761H205.196V161.953ZM195.613 161.953H190.821V160.761H195.613V161.953ZM186.029 161.953H181.237V160.761H186.029L186.029 161.953ZM176.445 161.953H171.653V160.761H176.445L176.445 161.953ZM166.862 161.953H162.07V160.761H166.862V161.953ZM157.278 161.953H152.487V160.761H157.277L157.278 161.953ZM147.694 161.953H142.902V160.761H147.693L147.694 161.953ZM138.111 161.953H133.319V160.761H138.111V161.953ZM128.528 161.953H123.736V160.761H128.526L128.528 161.953ZM118.944 161.953H114.15V160.761H118.942L118.944 161.953ZM109.36 161.953H104.569V160.761H109.36V161.953ZM99.7767 161.953H94.985V160.761H99.7767V161.953ZM90.1934 161.953H85.4014V160.761H90.1934V161.953ZM80.6098 161.953H75.8177V160.761H80.6098V161.953ZM71.0261 161.953H66.2345V160.761H71.0261V161.953ZM61.4425 161.953H56.6671L56.6508 160.761H61.4425V161.953Z" fill="white"/>
<path d="M211.278 210.209H287.105C289.487 210.209 291.77 211.155 293.454 212.839C295.138 214.523 296.084 216.806 296.084 219.187V257.18C296.084 259.561 295.138 261.844 293.454 263.528C291.77 265.212 289.487 266.158 287.105 266.158H211.278C208.613 266.158 206.058 265.099 204.173 263.215C202.289 261.331 201.231 258.775 201.231 256.11V220.257C201.231 218.938 201.49 217.631 201.995 216.412C202.5 215.193 203.24 214.085 204.173 213.152C205.106 212.219 206.214 211.479 207.433 210.974C208.652 210.469 209.958 210.209 211.278 210.209Z" fill="white"/>
<path d="M287.105 266.754H211.278C208.456 266.75 205.751 265.628 203.756 263.633C201.761 261.637 200.638 258.932 200.635 256.111V220.257C200.638 217.436 201.761 214.731 203.756 212.736C205.751 210.74 208.456 209.618 211.278 209.615H287.105C289.644 209.618 292.077 210.627 293.872 212.422C295.667 214.217 296.676 216.65 296.679 219.188V257.181C296.676 259.719 295.666 262.152 293.872 263.947C292.077 265.741 289.644 266.751 287.105 266.754ZM211.278 210.805C208.772 210.808 206.37 211.805 204.598 213.577C202.826 215.348 201.83 217.751 201.826 220.256V256.109C201.83 258.614 202.826 261.016 204.598 262.788C206.37 264.56 208.772 265.557 211.278 265.56H287.105C289.328 265.557 291.459 264.674 293.03 263.102C294.602 261.53 295.485 259.4 295.488 257.177V219.185C295.485 216.962 294.601 214.832 293.03 213.26C291.459 211.689 289.328 210.805 287.105 210.803L211.278 210.805Z" fill="#262626"/>
<path d="M228.54 251.863C236.095 251.863 242.22 245.738 242.22 238.183C242.22 230.629 236.095 224.504 228.54 224.504C220.986 224.504 214.861 230.629 214.861 238.183C214.861 245.738 220.986 251.863 228.54 251.863Z" fill="white"/>
<path d="M228.54 252.458C225.717 252.458 222.957 251.621 220.609 250.052C218.262 248.483 216.432 246.254 215.352 243.645C214.272 241.037 213.989 238.167 214.54 235.398C215.091 232.629 216.451 230.085 218.447 228.089C220.444 226.092 222.987 224.733 225.757 224.182C228.526 223.632 231.396 223.914 234.004 224.995C236.613 226.075 238.842 227.905 240.411 230.253C241.979 232.6 242.816 235.36 242.816 238.183C242.812 241.968 241.307 245.597 238.63 248.273C235.954 250.95 232.325 252.455 228.54 252.458ZM228.54 225.1C225.952 225.1 223.423 225.868 221.271 227.305C219.12 228.743 217.443 230.787 216.453 233.178C215.463 235.568 215.204 238.199 215.709 240.737C216.214 243.275 217.46 245.606 219.29 247.436C221.12 249.266 223.451 250.512 225.989 251.016C228.527 251.521 231.158 251.262 233.549 250.271C235.939 249.281 237.983 247.604 239.42 245.452C240.858 243.301 241.625 240.771 241.625 238.183C241.621 234.714 240.241 231.388 237.788 228.936C235.335 226.483 232.009 225.103 228.54 225.1Z" fill="#262626"/>
<path d="M8.87811 210.492C8.76411 210.492 8.65122 210.469 8.5459 210.426C8.44058 210.382 8.34488 210.318 8.26427 210.238C8.18366 210.157 8.11972 210.061 8.07609 209.956C8.03246 209.851 8.01001 209.738 8.01001 209.624V185.131C8.01001 184.901 8.10147 184.68 8.26427 184.517C8.42707 184.354 8.64787 184.263 8.87811 184.263C9.10834 184.263 9.32915 184.354 9.49195 184.517C9.65475 184.68 9.74621 184.901 9.74621 185.131V209.624C9.74621 209.854 9.65475 210.075 9.49195 210.238C9.32915 210.4 9.10834 210.492 8.87811 210.492Z" fill="#262626"/>
<path d="M16.8699 198.245H0.886666C0.771129 198.248 0.656262 198.227 0.5488 198.185C0.441338 198.142 0.343445 198.078 0.26086 197.998C0.178276 197.917 0.112662 197.82 0.067868 197.714C0.0230737 197.607 0 197.493 0 197.377C0 197.262 0.0230737 197.147 0.067868 197.041C0.112662 196.934 0.178276 196.838 0.26086 196.757C0.343445 196.676 0.441338 196.613 0.5488 196.57C0.656262 196.528 0.771129 196.507 0.886666 196.509H16.8699C17.0968 196.514 17.3129 196.608 17.4717 196.77C17.6305 196.932 17.7194 197.15 17.7194 197.377C17.7194 197.604 17.6305 197.822 17.4717 197.984C17.3129 198.147 17.0968 198.24 16.8699 198.245Z" fill="#262626"/>
<path d="M316.308 245.364C316.146 245.364 315.99 245.3 315.876 245.185C315.761 245.07 315.696 244.915 315.696 244.752V231.615C315.694 231.533 315.709 231.452 315.739 231.376C315.768 231.3 315.813 231.231 315.87 231.172C315.927 231.114 315.995 231.067 316.071 231.035C316.146 231.004 316.227 230.987 316.309 230.987C316.39 230.987 316.471 231.004 316.547 231.035C316.622 231.067 316.69 231.114 316.747 231.172C316.804 231.231 316.849 231.3 316.879 231.376C316.909 231.452 316.923 231.533 316.921 231.615V244.752C316.921 244.833 316.905 244.912 316.874 244.986C316.843 245.061 316.798 245.128 316.741 245.185C316.685 245.242 316.617 245.287 316.543 245.318C316.468 245.348 316.389 245.364 316.308 245.364Z" fill="#262626"/>
<path d="M320.595 238.796H312.022C311.941 238.798 311.859 238.784 311.783 238.754C311.707 238.724 311.638 238.679 311.579 238.622C311.521 238.565 311.474 238.497 311.443 238.422C311.411 238.346 311.395 238.265 311.395 238.184C311.395 238.102 311.411 238.021 311.443 237.946C311.474 237.87 311.521 237.802 311.579 237.745C311.638 237.688 311.707 237.643 311.783 237.614C311.859 237.584 311.941 237.569 312.022 237.571H320.595C320.755 237.576 320.907 237.642 321.018 237.756C321.13 237.871 321.192 238.024 321.192 238.184C321.192 238.343 321.13 238.497 321.018 238.611C320.907 238.725 320.755 238.792 320.595 238.796Z" fill="#262626"/>
<path d="M306.512 134.05C306.431 134.05 306.351 134.035 306.277 134.004C306.203 133.973 306.135 133.928 306.079 133.871C306.022 133.814 305.977 133.747 305.946 133.673C305.915 133.598 305.899 133.519 305.899 133.438V120.301C305.897 120.22 305.911 120.138 305.941 120.062C305.971 119.986 306.016 119.917 306.073 119.858C306.13 119.8 306.198 119.753 306.273 119.721C306.349 119.69 306.43 119.673 306.511 119.673C306.593 119.673 306.674 119.69 306.749 119.721C306.825 119.753 306.893 119.8 306.95 119.858C307.007 119.917 307.052 119.986 307.081 120.062C307.111 120.138 307.126 120.22 307.123 120.301V133.438C307.123 133.601 307.059 133.756 306.944 133.871C306.829 133.986 306.674 134.05 306.512 134.05Z" fill="#262626"/>
<path d="M310.798 127.482H302.225C302.144 127.484 302.062 127.47 301.986 127.44C301.91 127.41 301.841 127.365 301.782 127.308C301.724 127.251 301.677 127.183 301.646 127.108C301.614 127.032 301.597 126.952 301.597 126.87C301.597 126.788 301.614 126.707 301.646 126.632C301.677 126.557 301.724 126.488 301.782 126.431C301.841 126.374 301.91 126.33 301.986 126.3C302.062 126.27 302.144 126.256 302.225 126.258H310.798C310.958 126.262 311.11 126.328 311.221 126.442C311.333 126.557 311.395 126.71 311.395 126.87C311.395 127.03 311.333 127.183 311.221 127.297C311.11 127.412 310.958 127.478 310.798 127.482H310.798Z" fill="#262626"/>
<path d="M72.1922 50.3054C71.0512 50.3309 69.9454 49.91 69.1101 49.1323C68.2748 48.3547 67.7761 47.2816 67.7201 46.1417C67.6642 45.0019 68.0554 43.8852 68.8105 43.0294C69.5656 42.1737 70.6249 41.6465 71.7629 41.5602C72.9009 41.4738 74.0277 41.8351 74.9032 42.5671C75.7788 43.2991 76.3341 44.344 76.4507 45.4793C76.5674 46.6146 76.2363 47.7506 75.5279 48.6454C74.8195 49.5402 73.7898 50.1231 72.658 50.27C72.5035 50.2899 72.348 50.3017 72.1922 50.3054ZM72.0314 42.8451C71.9225 42.8474 71.8138 42.8556 71.7057 42.8697C70.9078 42.9727 70.1817 43.3832 69.6819 44.0137C69.1822 44.6442 68.9483 45.4448 69.0302 46.2452C69.1121 47.0455 69.5032 47.7823 70.1202 48.2986C70.7372 48.8148 71.5315 49.0698 72.3337 49.0091C73.1359 48.9485 73.8828 48.577 74.4152 47.9738C74.9476 47.3707 75.2235 46.5835 75.1841 45.7799C75.1447 44.9763 74.7931 44.2199 74.2042 43.6717C73.6153 43.1236 72.8357 42.827 72.0314 42.8451Z" fill="#292A2E"/>
<path d="M74.866 40.5823C73.787 40.605 72.7376 40.228 71.9197 39.5237C71.1018 38.8194 70.5731 37.8376 70.4354 36.7671C70.325 35.9091 70.4716 35.0377 70.8565 34.263C71.2414 33.4883 71.8474 32.8451 72.5979 32.4148C73.3484 31.9845 74.2096 31.7864 75.0726 31.8456C75.9357 31.9047 76.7618 32.2185 77.4465 32.7471C78.1312 33.2758 78.6438 33.9956 78.9194 34.8156C79.1951 35.6356 79.2213 36.5189 78.9949 37.3538C78.7685 38.1888 78.2997 38.9378 77.6476 39.5062C76.9955 40.0747 76.1895 40.437 75.3315 40.5473C75.177 40.567 75.0217 40.5787 74.866 40.5823ZM74.7072 33.1216C74.274 33.1307 73.8476 33.2309 73.4557 33.4156C73.0638 33.6004 72.7152 33.8655 72.4325 34.1939C72.1499 34.5223 71.9395 34.9064 71.8151 35.3215C71.6907 35.7365 71.6551 36.173 71.7105 36.6027C71.787 37.1941 72.0331 37.7506 72.4192 38.2051C72.8052 38.6595 73.3146 38.9924 73.8858 39.1635C74.457 39.3346 75.0655 39.3366 75.6378 39.1692C76.2101 39.0019 76.7217 38.6723 77.1107 38.2204C77.4997 37.7684 77.7494 37.2135 77.8297 36.6227C77.91 36.0318 77.8175 35.4304 77.5633 34.891C77.309 34.3517 76.904 33.8975 76.3972 33.5834C75.8903 33.2693 75.3033 33.1092 74.7072 33.1216Z" fill="#292A2E"/>
<path d="M78.985 42.4696C79.5445 40.4348 77.5285 38.1063 74.4822 37.2688C71.4359 36.4312 68.5128 37.4018 67.9534 39.4366C67.394 41.4714 69.4099 43.7999 72.4562 44.6375C75.5025 45.475 78.4256 44.5045 78.985 42.4696Z" fill="white"/>
<path d="M74.8178 45.5804C73.9627 45.5961 73.1097 45.4875 72.2858 45.2579C68.8444 44.3116 66.669 41.6795 67.333 39.2662C67.9969 36.8529 71.212 35.7033 74.6522 36.6484C76.1599 37.0337 77.5223 37.8508 78.5722 38.9994C79.5678 40.151 79.9347 41.442 79.6047 42.6401C79.2747 43.8383 78.2994 44.7619 76.8559 45.2413C76.1971 45.4547 75.5102 45.5689 74.8178 45.5804ZM72.1691 37.6182C70.3745 37.6579 68.9048 38.4037 68.574 39.607C68.1169 41.2681 69.973 43.2874 72.6246 44.017C73.8719 44.3896 75.2008 44.3907 76.4488 44.0201C77.471 43.6806 78.1509 43.0694 78.3625 42.299C78.5742 41.5286 78.3026 40.6561 77.5973 39.8417C76.7143 38.8853 75.5719 38.2069 74.3095 37.8894C73.613 37.6958 72.8919 37.6044 72.1691 37.6182Z" fill="#292A2E"/>
<path d="M73.8366 44.897L75.682 37.698L73.9211 37.1345L71.7771 44.4193L73.8366 44.897Z" fill="#292A2E"/>
<path d="M65.8798 40.5144C66.206 40.5144 66.4703 40.25 66.4703 39.9239C66.4703 39.5978 66.206 39.3334 65.8798 39.3334C65.5537 39.3334 65.2893 39.5978 65.2893 39.9239C65.2893 40.25 65.5537 40.5144 65.8798 40.5144Z" fill="#292A2E"/>
<path d="M67.1647 37.5908C67.4909 37.5908 67.7552 37.3264 67.7552 37.0003C67.7552 36.6742 67.4909 36.4098 67.1647 36.4098C66.8386 36.4098 66.5742 36.6742 66.5742 37.0003C66.5742 37.3264 66.8386 37.5908 67.1647 37.5908Z" fill="#292A2E"/>
<path d="M138.06 119.232C137.976 119.232 137.894 119.206 137.825 119.156C137.757 119.106 137.707 119.036 137.681 118.956C137.656 118.876 137.656 118.789 137.683 118.709C137.71 118.629 137.761 118.56 137.83 118.511C138.093 118.316 138.345 118.107 138.587 117.885C138.625 117.85 138.671 117.824 138.72 117.806C138.769 117.789 138.821 117.781 138.873 117.784C138.925 117.787 138.976 117.8 139.023 117.822C139.07 117.845 139.113 117.877 139.147 117.915C139.182 117.954 139.209 117.999 139.227 118.049C139.244 118.098 139.251 118.15 139.249 118.202C139.246 118.254 139.233 118.305 139.21 118.352C139.188 118.399 139.156 118.441 139.117 118.476C138.853 118.718 138.576 118.947 138.288 119.16C138.221 119.207 138.142 119.232 138.06 119.232ZM142.002 114.974C141.929 114.974 141.858 114.954 141.795 114.916C141.733 114.879 141.683 114.824 141.649 114.76C141.616 114.695 141.601 114.622 141.606 114.55C141.611 114.477 141.636 114.407 141.678 114.348C142.585 113.059 143.379 111.695 144.052 110.271C144.073 110.222 144.104 110.178 144.142 110.141C144.181 110.105 144.227 110.076 144.276 110.058C144.326 110.039 144.379 110.031 144.432 110.033C144.486 110.035 144.538 110.048 144.586 110.071C144.634 110.094 144.677 110.126 144.712 110.166C144.748 110.205 144.775 110.252 144.792 110.302C144.809 110.353 144.816 110.406 144.812 110.459C144.808 110.512 144.793 110.564 144.769 110.611C144.077 112.077 143.26 113.481 142.326 114.806C142.29 114.858 142.241 114.901 142.184 114.93C142.128 114.959 142.065 114.974 142.002 114.974ZM146.121 106.368C146.082 106.368 146.043 106.362 146.006 106.351C145.905 106.321 145.821 106.252 145.771 106.159C145.721 106.067 145.71 105.958 145.74 105.857C146.191 104.343 146.54 102.801 146.786 101.241C146.793 101.188 146.811 101.138 146.838 101.093C146.865 101.048 146.901 101.009 146.943 100.978C146.986 100.946 147.034 100.924 147.085 100.912C147.136 100.899 147.189 100.897 147.241 100.905C147.293 100.913 147.343 100.932 147.388 100.96C147.432 100.987 147.471 101.024 147.502 101.066C147.532 101.109 147.554 101.158 147.566 101.209C147.578 101.26 147.579 101.313 147.57 101.365C147.319 102.96 146.962 104.537 146.501 106.085C146.477 106.167 146.426 106.239 146.358 106.29C146.289 106.341 146.206 106.368 146.121 106.368ZM147.647 96.9366H147.63C147.525 96.9323 147.426 96.8863 147.354 96.8089C147.283 96.7314 147.245 96.6288 147.25 96.5236C147.275 95.9085 147.289 95.2766 147.289 94.646C147.29 93.6984 147.229 92.7518 147.107 91.8122C147.1 91.7601 147.103 91.7071 147.116 91.6562C147.129 91.6054 147.152 91.5576 147.184 91.5157C147.216 91.4738 147.255 91.4387 147.301 91.4123C147.346 91.3859 147.397 91.3688 147.449 91.362C147.501 91.3552 147.554 91.3588 147.605 91.3727C147.655 91.3865 147.703 91.4102 147.744 91.4425C147.786 91.4748 147.82 91.515 147.846 91.5608C147.872 91.6066 147.888 91.6571 147.895 91.7093C148.021 92.6831 148.084 93.6641 148.084 94.646C148.084 95.2878 148.071 95.9303 148.044 96.5561C148.039 96.6585 147.996 96.7552 147.922 96.826C147.848 96.8968 147.749 96.9367 147.647 96.9366ZM146.336 87.5249C146.256 87.5249 146.177 87.5005 146.111 87.4548C146.045 87.4091 145.994 87.3444 145.965 87.2691C145.406 85.8053 144.679 84.4114 143.798 83.1153C143.769 83.0721 143.748 83.0236 143.738 82.9725C143.727 82.9214 143.727 82.8687 143.737 82.8175C143.746 82.7662 143.766 82.7174 143.795 82.6739C143.824 82.6303 143.861 82.5928 143.904 82.5635C143.947 82.5342 143.995 82.5137 144.047 82.5032C144.098 82.4927 144.15 82.4923 144.202 82.5021C144.253 82.512 144.302 82.5318 144.345 82.5605C144.389 82.5892 144.426 82.6262 144.456 82.6693C145.371 84.0166 146.126 85.4654 146.708 86.9868C146.726 87.0356 146.735 87.0875 146.733 87.1396C146.732 87.1918 146.72 87.2431 146.699 87.2906C146.677 87.3382 146.647 87.3811 146.609 87.4169C146.571 87.4526 146.526 87.4806 146.477 87.4991C146.432 87.5161 146.385 87.5248 146.337 87.5245L146.336 87.5249ZM116.989 85.6267C116.346 85.659 115.704 85.5595 115.101 85.3341C114.498 85.1087 113.947 84.7623 113.483 84.3162C113.41 84.2402 113.37 84.1384 113.372 84.0331C113.374 83.9278 113.418 83.8276 113.494 83.7547C113.57 83.6817 113.672 83.6418 113.777 83.6439C113.883 83.646 113.983 83.6898 114.056 83.7658C114.906 84.6502 116.251 84.9925 117.979 84.7649L118.188 84.7359C118.292 84.721 118.398 84.7482 118.482 84.8113C118.567 84.8745 118.622 84.9686 118.637 85.0729C118.652 85.1772 118.625 85.2831 118.562 85.3673C118.499 85.4516 118.404 85.5073 118.3 85.5222L118.085 85.5524C117.722 85.601 117.357 85.626 116.991 85.6271L116.989 85.6267ZM122.821 84.1847C122.73 84.1857 122.642 84.1558 122.571 84.1001C122.5 84.0444 122.451 83.9662 122.43 83.8784C122.409 83.7905 122.419 83.6983 122.458 83.6168C122.497 83.5353 122.562 83.4695 122.643 83.4302C124.029 82.7689 125.213 81.7494 126.073 80.4772C126.132 80.3932 126.222 80.3355 126.323 80.3164C126.424 80.2974 126.529 80.3184 126.615 80.3751C126.701 80.4318 126.762 80.5197 126.784 80.6203C126.807 80.7209 126.789 80.8262 126.735 80.9141C125.799 82.303 124.508 83.4166 122.997 84.1399C122.943 84.1682 122.883 84.1837 122.823 84.1851L122.821 84.1847ZM112.869 79.9304C112.839 79.9306 112.809 79.9273 112.779 79.9205C112.728 79.9087 112.68 79.8871 112.638 79.8568C112.595 79.8265 112.559 79.7881 112.532 79.7438C112.504 79.6996 112.485 79.6503 112.477 79.5989C112.468 79.5474 112.47 79.4948 112.482 79.4439C112.886 77.8187 113.7 76.324 114.845 75.1023C114.917 75.0284 115.016 74.9855 115.119 74.9829C115.222 74.9802 115.323 75.018 115.399 75.0881C115.474 75.1582 115.52 75.2551 115.526 75.3583C115.531 75.4615 115.496 75.5628 115.429 75.6407C114.376 76.7608 113.628 78.1314 113.256 79.6222C113.236 79.7095 113.187 79.7874 113.117 79.8434C113.047 79.8994 112.961 79.9302 112.871 79.9308L112.869 79.9304ZM141.031 79.6437C140.928 79.6438 140.83 79.6043 140.756 79.5333C139.617 78.4481 138.379 77.4711 137.058 76.6149C137.013 76.5872 136.974 76.5507 136.943 76.5075C136.912 76.4644 136.89 76.4155 136.879 76.3638C136.867 76.312 136.866 76.2585 136.875 76.2062C136.884 76.154 136.904 76.1042 136.933 76.0597C136.962 76.0153 136.999 75.977 137.043 75.9473C137.087 75.9176 137.137 75.897 137.189 75.8867C137.241 75.8764 137.294 75.8766 137.346 75.8874C137.398 75.8981 137.448 75.9192 137.491 75.9493C138.853 76.8323 140.129 77.84 141.304 78.9595C141.361 79.0143 141.401 79.085 141.417 79.1625C141.434 79.24 141.427 79.3208 141.398 79.3944C141.368 79.468 141.317 79.5311 141.252 79.5755C141.186 79.62 141.109 79.6437 141.029 79.6437H141.031ZM127.921 76.6038C127.907 76.6038 127.894 76.6038 127.881 76.6038C127.829 76.5985 127.779 76.583 127.732 76.5582C127.686 76.5334 127.646 76.4997 127.613 76.4591C127.58 76.4185 127.555 76.3718 127.54 76.3217C127.525 76.2715 127.521 76.2189 127.526 76.1669C127.571 75.713 127.593 75.257 127.593 74.8008C127.585 73.6967 127.478 72.5955 127.272 71.5107C127.253 71.4071 127.276 71.3002 127.335 71.2134C127.395 71.1267 127.487 71.0672 127.59 71.0481C127.694 71.029 127.801 71.0518 127.888 71.1115C127.974 71.1712 128.034 71.263 128.053 71.3666C128.109 71.6723 128.158 71.9744 128.201 72.2728C128.248 72.2155 128.31 72.1724 128.38 72.1486C128.45 72.1247 128.526 72.121 128.598 72.1378C130.177 72.5112 131.72 73.0217 133.21 73.6635C133.307 73.705 133.383 73.7833 133.422 73.8812C133.461 73.979 133.46 74.0883 133.418 74.1851C133.377 74.2819 133.298 74.3582 133.201 74.3973C133.103 74.4363 132.993 74.4349 132.897 74.3934C131.449 73.7699 129.95 73.274 128.416 72.9114C128.364 72.8989 128.315 72.8764 128.272 72.845C128.347 73.4943 128.385 74.1473 128.386 74.8008C128.387 75.2836 128.363 75.766 128.315 76.2463C128.306 76.3442 128.26 76.435 128.187 76.501C128.114 76.5671 128.019 76.6037 127.921 76.6038ZM119.065 73.094C118.973 73.0941 118.883 73.0619 118.812 73.0029C118.741 72.944 118.692 72.8621 118.675 72.7713C118.657 72.6805 118.672 72.5865 118.717 72.5055C118.761 72.4245 118.833 72.3616 118.919 72.3276C119.164 72.2307 119.414 72.1417 119.66 72.0635C120.935 71.6824 122.261 71.4991 123.592 71.5199H123.765C123.87 71.5199 123.971 71.5617 124.045 71.6362C124.12 71.7106 124.162 71.8116 124.162 71.917C124.162 72.0223 124.12 72.1233 124.045 72.1978C123.971 72.2722 123.87 72.3141 123.765 72.3141H123.762H123.593C122.345 72.2934 121.101 72.4641 119.904 72.8204C119.668 72.8956 119.438 72.9774 119.214 73.0658C119.166 73.0845 119.115 73.0937 119.064 73.0928L119.065 73.094ZM126.369 67.2262C126.288 67.2262 126.209 67.2012 126.142 67.1547C126.075 67.1082 126.025 67.0424 125.997 66.9661C125.446 65.4826 124.808 64.0329 124.086 62.6244C124.062 62.5779 124.048 62.5272 124.044 62.4752C124.04 62.4231 124.046 62.3708 124.062 62.3211C124.078 62.2715 124.104 62.2255 124.138 62.1857C124.172 62.146 124.213 62.1134 124.259 62.0897C124.306 62.066 124.357 62.0517 124.409 62.0476C124.461 62.0435 124.513 62.0498 124.563 62.0659C124.612 62.0821 124.658 62.1079 124.698 62.1419C124.738 62.1758 124.77 62.2173 124.794 62.2638C125.53 63.7005 126.18 65.1792 126.742 66.6925C126.764 66.7525 126.771 66.8169 126.763 66.8803C126.755 66.9437 126.731 67.0041 126.695 67.0565C126.658 67.1089 126.609 67.1517 126.553 67.1812C126.496 67.2108 126.433 67.2262 126.369 67.2262ZM122.061 58.6822C121.994 58.6823 121.928 58.6655 121.869 58.6333C121.81 58.6011 121.761 58.5545 121.725 58.498C120.883 57.172 119.967 55.8587 119.001 54.5951C118.937 54.5114 118.909 54.4057 118.923 54.3013C118.937 54.1969 118.992 54.1023 119.076 54.0383C119.159 53.9743 119.265 53.9462 119.369 53.9601C119.474 53.9741 119.569 54.0289 119.632 54.1126C120.612 55.3949 121.541 56.7272 122.396 58.0718C122.452 58.1607 122.471 58.2684 122.448 58.3712C122.425 58.474 122.362 58.5634 122.273 58.6199C122.21 58.6604 122.136 58.6816 122.06 58.681L122.061 58.6822ZM116.245 51.073C116.19 51.0731 116.135 51.0617 116.085 51.0394C116.034 51.0172 115.989 50.9847 115.952 50.944C115.466 50.4138 114.971 49.896 114.479 49.404C113.866 48.791 113.22 48.2116 112.545 47.6682C112.503 47.636 112.467 47.5957 112.441 47.5497C112.415 47.5037 112.398 47.4529 112.391 47.4003C112.385 47.3477 112.389 47.2943 112.404 47.2434C112.418 47.1924 112.443 47.1449 112.476 47.1035C112.509 47.0622 112.551 47.028 112.597 47.0029C112.644 46.9777 112.695 46.9621 112.748 46.9571C112.801 46.9521 112.854 46.9576 112.904 46.9735C112.955 46.9894 113.002 47.0152 113.042 47.0494C113.74 47.6105 114.407 48.2091 115.041 48.8424C115.541 49.3424 116.044 49.869 116.538 50.4083C116.59 50.4651 116.624 50.5358 116.636 50.6117C116.649 50.6876 116.639 50.7655 116.608 50.8359C116.577 50.9064 116.526 50.9662 116.462 51.0083C116.397 51.0504 116.322 51.0729 116.245 51.073ZM108.784 45.148C108.721 45.1479 108.658 45.1326 108.602 45.1036C107.203 44.3834 105.741 43.7949 104.233 43.3455C104.134 43.3144 104.05 43.2452 104.001 43.1529C103.952 43.0607 103.942 42.9528 103.971 42.8527C104.001 42.7526 104.07 42.6684 104.161 42.6182C104.253 42.568 104.361 42.556 104.461 42.5847C106.017 43.0479 107.526 43.6549 108.969 44.3979C109.048 44.4387 109.111 44.505 109.148 44.5861C109.185 44.6671 109.194 44.7583 109.173 44.8449C109.152 44.9315 109.102 45.0085 109.032 45.0634C108.962 45.1184 108.875 45.1482 108.786 45.148H108.784ZM85.4109 43.4444C85.316 43.4444 85.2242 43.4105 85.1522 43.3487C85.0802 43.2869 85.0327 43.2013 85.0183 43.1076C85.0039 43.0138 85.0235 42.9179 85.0737 42.8374C85.1239 42.7568 85.2012 42.6969 85.2917 42.6684C86.8498 42.2186 88.4402 41.889 90.0488 41.6828C90.1014 41.6736 90.1552 41.6752 90.2072 41.6873C90.2591 41.6994 90.3081 41.7218 90.3512 41.7533C90.3943 41.7847 90.4306 41.8245 90.4579 41.8703C90.4853 41.9161 90.5031 41.9669 90.5104 42.0198C90.5177 42.0726 90.5143 42.1264 90.5003 42.1779C90.4864 42.2293 90.4622 42.2775 90.4292 42.3194C90.3963 42.3614 90.3552 42.3962 90.3085 42.4219C90.2617 42.4477 90.2103 42.4637 90.1572 42.4691C88.5931 42.6716 87.0464 42.9917 85.5304 43.4265C85.4917 43.4385 85.4514 43.4445 85.4109 43.4444ZM99.6614 42.3789C99.6443 42.3789 99.6272 42.3778 99.6102 42.3758C98.0432 42.1767 96.464 42.0886 94.8845 42.1121H94.8794C94.774 42.1128 94.6727 42.0716 94.5978 41.9976C94.5228 41.9236 94.4803 41.8229 94.4797 41.7175C94.479 41.6122 94.5202 41.5109 94.5941 41.436C94.6681 41.361 94.7689 41.3185 94.8742 41.3178C96.4908 41.2971 98.1069 41.3874 99.7111 41.5879C99.8112 41.6006 99.9027 41.651 99.967 41.7288C100.031 41.8066 100.064 41.906 100.057 42.0067C100.051 42.1074 100.007 42.202 99.933 42.2711C99.8595 42.3403 99.7624 42.3788 99.6614 42.3789Z" fill="#1E1E1E"/>
<path d="M265.907 9.11704C265.054 9.27012 264.175 9.17891 263.372 8.85393C262.569 8.52896 261.874 7.98346 261.367 7.28041C260.861 6.57736 260.563 5.74542 260.509 4.88059C260.455 4.01577 260.647 3.15332 261.062 2.3928C261.478 1.63228 262.1 1.00467 262.856 0.582431C263.613 0.160189 264.473 -0.0394816 265.339 0.00646535C266.204 0.0524123 267.039 0.342104 267.746 0.842104C268.454 1.3421 269.006 2.03203 269.338 2.83225C269.6 3.46684 269.717 4.15204 269.68 4.83764C269.643 5.52324 269.453 6.19185 269.124 6.79448C268.795 7.3971 268.335 7.91846 267.779 8.32034C267.222 8.72222 266.582 8.99444 265.907 9.11704ZM264.504 1.33909C263.831 1.46137 263.212 1.7895 262.733 2.27825C262.254 2.767 261.938 3.3923 261.83 4.06797C261.721 4.74364 261.824 5.4364 262.126 6.05075C262.427 6.66511 262.912 7.17081 263.513 7.49815C264.114 7.82549 264.802 7.95835 265.482 7.87842C266.161 7.79848 266.799 7.50969 267.308 7.05185C267.817 6.594 268.171 5.98966 268.322 5.32211C268.472 4.65456 268.412 3.95669 268.15 3.32468C267.86 2.62722 267.341 2.0499 266.677 1.68867C266.014 1.32745 265.247 1.20408 264.504 1.33909Z" fill="#292A2E"/>
<path d="M265.877 19.7951C264.716 20.0059 263.519 19.7637 262.532 19.1184C261.544 18.4732 260.842 17.474 260.569 16.3265C260.296 15.179 260.474 13.9706 261.065 12.95C261.656 11.9294 262.616 11.1743 263.747 10.8402C264.879 10.506 266.095 10.6183 267.146 11.1538C268.197 11.6893 269.002 12.6073 269.397 13.7189C269.791 14.8305 269.744 16.0509 269.266 17.1291C268.788 18.2073 267.915 19.0611 266.826 19.5147C266.52 19.642 266.202 19.736 265.877 19.7951ZM264.481 12.0156C264.246 12.0581 264.017 12.1257 263.797 12.2173C263.019 12.5417 262.395 13.1517 262.054 13.9219C261.712 14.6922 261.679 15.564 261.961 16.358C262.243 17.152 262.818 17.8078 263.568 18.1906C264.319 18.5733 265.188 18.6538 265.996 18.4156C266.804 18.1773 267.49 17.6384 267.913 16.9097C268.336 16.181 268.463 15.3179 268.269 14.498C268.075 13.6782 267.574 12.9639 266.87 12.5021C266.165 12.0403 265.31 11.8662 264.481 12.0156Z" fill="#292A2E"/>
<path d="M271.136 10.0785C271.143 7.84381 268.436 6.02453 265.09 6.01501C261.745 6.00549 259.027 7.80934 259.021 10.044C259.015 12.2787 261.722 14.0979 265.067 14.1074C268.413 14.117 271.13 12.3131 271.136 10.0785Z" fill="white"/>
<path d="M266.804 14.5993C266.231 14.7025 265.649 14.7533 265.066 14.751C263.426 14.7761 261.815 14.3219 260.429 13.4441C259.103 12.5533 258.374 11.3453 258.378 10.0424C258.382 8.73943 259.117 7.53616 260.449 6.65218C261.851 5.80991 263.457 5.36717 265.093 5.37186C266.729 5.37655 268.332 5.82849 269.73 6.67878C271.056 7.56952 271.785 8.77795 271.781 10.0805C271.777 11.383 271.042 12.5875 269.711 13.4707C268.828 14.0392 267.839 14.4231 266.804 14.5993ZM263.58 6.79037C262.718 6.93537 261.894 7.25321 261.158 7.72479C260.197 8.36336 259.666 9.18777 259.664 10.0467C259.661 10.9057 260.187 11.7337 261.145 12.377C262.331 13.0853 263.686 13.4612 265.068 13.4652C266.45 13.4691 267.807 13.1011 268.997 12.3997C269.958 11.7611 270.49 10.9367 270.492 10.0777C270.495 9.21875 269.969 8.39116 269.011 7.74743C267.836 7.01154 266.473 6.63371 265.087 6.66012C264.582 6.65774 264.078 6.70134 263.58 6.79037Z" fill="#292A2E"/>
<path d="M263.608 6.13347L263.723 14.0024L265.679 14.0889L265.845 6.04968L263.608 6.13347Z" fill="#292A2E"/>
<path d="M272.62 12.9747C272.965 12.9747 273.245 12.6946 273.245 12.3492C273.245 12.0038 272.965 11.7238 272.62 11.7238C272.274 11.7238 271.994 12.0038 271.994 12.3492C271.994 12.6946 272.274 12.9747 272.62 12.9747Z" fill="#292A2E"/>
<path d="M273.121 9.63007C273.466 9.63007 273.746 9.35004 273.746 9.00461C273.746 8.65918 273.466 8.37915 273.121 8.37915C272.775 8.37915 272.495 8.65918 272.495 9.00461C272.495 9.35004 272.775 9.63007 273.121 9.63007Z" fill="#292A2E"/>
<path d="M179.384 101C179.313 101 179.243 100.981 179.182 100.945C179.121 100.909 179.07 100.857 179.036 100.795C178.288 99.3567 177.646 97.8657 177.115 96.3341C177.079 96.235 177.084 96.1258 177.128 96.0304C177.173 95.9351 177.254 95.8614 177.353 95.8256C177.452 95.7897 177.561 95.7948 177.657 95.8395C177.752 95.8842 177.826 95.965 177.862 96.064C178.381 97.5553 179.006 99.0079 179.731 100.411C179.764 100.471 179.781 100.539 179.78 100.608C179.779 100.677 179.76 100.745 179.725 100.805C179.69 100.864 179.64 100.913 179.581 100.948C179.521 100.982 179.453 101 179.384 101ZM176.077 92.0158C175.989 92.0158 175.904 91.9865 175.834 91.9326C175.765 91.8787 175.715 91.8032 175.693 91.718C175.296 90.1736 174.957 88.5851 174.692 86.9958C174.675 86.8919 174.7 86.7854 174.761 86.6998C174.822 86.6141 174.915 86.5562 175.019 86.539C175.123 86.5217 175.229 86.5464 175.315 86.6077C175.401 86.6689 175.458 86.7617 175.476 86.8656C175.737 88.4318 176.069 89.9973 176.462 91.5194C176.488 91.6214 176.473 91.7296 176.42 91.8203C176.366 91.911 176.279 91.9767 176.177 92.0031C176.144 92.0116 176.111 92.0159 176.077 92.0158ZM174.5 82.5731C174.4 82.5735 174.303 82.5359 174.23 82.4681C174.156 82.4003 174.111 82.3072 174.103 82.2074C173.987 80.7428 173.928 79.256 173.928 77.7883V77.3856C173.929 77.2803 173.972 77.1796 174.047 77.1056C174.122 77.0316 174.223 76.9905 174.328 76.9912C174.434 76.992 174.534 77.0345 174.608 77.1095C174.682 77.1845 174.723 77.2858 174.723 77.3911V77.7883C174.723 79.2354 174.781 80.7011 174.895 82.1446C174.903 82.2496 174.869 82.3536 174.801 82.4337C174.733 82.5138 174.635 82.5635 174.531 82.5719C174.521 82.5727 174.511 82.5731 174.5 82.5731ZM174.57 73.0026C174.557 73.0026 174.545 73.0026 174.53 73.0026C174.425 72.9925 174.329 72.9414 174.262 72.8603C174.195 72.7792 174.163 72.6749 174.173 72.5701C174.322 70.9777 174.542 69.3694 174.828 67.7904C174.835 67.7378 174.854 67.6872 174.881 67.6418C174.909 67.5963 174.946 67.5569 174.989 67.5259C175.032 67.4948 175.081 67.4728 175.133 67.4611C175.185 67.4494 175.239 67.4482 175.291 67.4577C175.344 67.4672 175.393 67.4871 175.438 67.5163C175.483 67.5454 175.521 67.5833 175.55 67.6275C175.58 67.6717 175.6 67.7214 175.61 67.7737C175.62 67.826 175.62 67.8798 175.609 67.9318C175.328 69.4885 175.11 71.0738 174.963 72.644C174.953 72.7416 174.908 72.8321 174.835 72.898C174.762 72.9639 174.668 73.0006 174.57 73.001V73.0026ZM176.268 63.583C176.233 63.5831 176.199 63.5786 176.165 63.5695C176.115 63.556 176.067 63.5327 176.026 63.5009C175.985 63.4692 175.95 63.4296 175.924 63.3844C175.898 63.3392 175.881 63.2893 175.874 63.2376C175.867 63.1859 175.871 63.1334 175.884 63.083C176.297 61.5477 176.781 59.9994 177.325 58.4804C177.342 58.4311 177.369 58.3858 177.404 58.347C177.44 58.3083 177.482 58.2768 177.529 58.2544C177.576 58.2319 177.627 58.2191 177.68 58.2165C177.732 58.2139 177.784 58.2216 177.833 58.2392C177.882 58.2568 177.928 58.284 177.966 58.3191C178.005 58.3542 178.036 58.3966 178.059 58.4439C178.081 58.4912 178.094 58.5424 178.096 58.5946C178.098 58.6467 178.091 58.6989 178.073 58.7481C177.536 60.2468 177.058 61.7749 176.652 63.2891C176.629 63.3731 176.579 63.4472 176.509 63.5C176.44 63.5528 176.355 63.5814 176.268 63.5814V63.583ZM179.488 54.5684C179.432 54.5684 179.377 54.5565 179.326 54.5334C179.23 54.4901 179.155 54.4105 179.118 54.3122C179.081 54.2139 179.084 54.1048 179.127 54.0089C179.452 53.2845 179.797 52.551 180.153 51.8303C180.509 51.1095 180.889 50.3875 181.281 49.6906C181.332 49.5987 181.418 49.5312 181.52 49.5028C181.621 49.4744 181.73 49.4874 181.822 49.5391C181.914 49.5907 181.981 49.6768 182.01 49.7782C182.038 49.8797 182.025 49.9883 181.973 50.0802C181.588 50.7644 181.216 51.4701 180.865 52.1817C180.514 52.8933 180.173 53.6181 179.851 54.3337C179.82 54.4034 179.769 54.4625 179.704 54.5038C179.639 54.5451 179.564 54.5668 179.488 54.5664V54.5684ZM221.613 51.8521C221.512 51.8518 221.415 51.8133 221.342 51.7445C221.269 51.6756 221.224 51.5815 221.218 51.4811C221.211 51.3807 221.243 51.2815 221.306 51.2036C221.37 51.1257 221.461 51.0749 221.561 51.0614C223.053 50.8629 224.117 49.9674 224.723 48.3976C224.741 48.3478 224.768 48.3022 224.804 48.2633C224.84 48.2245 224.883 48.1931 224.931 48.1712C224.98 48.1493 225.032 48.1372 225.084 48.1356C225.137 48.1341 225.19 48.1431 225.239 48.1622C225.289 48.1813 225.334 48.21 225.372 48.2467C225.41 48.2834 225.44 48.3273 225.461 48.3759C225.482 48.4245 225.493 48.4768 225.493 48.5297C225.494 48.5826 225.483 48.635 225.463 48.6839C224.756 50.519 223.442 51.6134 221.666 51.8489C221.648 51.8505 221.63 51.8509 221.613 51.8501V51.8521ZM216.996 50.8498C216.936 50.8502 216.876 50.8366 216.822 50.8101C215.361 50.0754 214.002 49.1543 212.779 48.07C212.739 48.0357 212.707 47.9941 212.684 47.9474C212.66 47.9007 212.646 47.8498 212.643 47.7978C212.639 47.7457 212.646 47.6935 212.662 47.644C212.679 47.5945 212.705 47.5488 212.739 47.5094C212.774 47.47 212.815 47.4378 212.862 47.4145C212.909 47.3913 212.96 47.3774 213.012 47.3738C213.064 47.3701 213.116 47.3768 213.165 47.3934C213.215 47.4099 213.261 47.4361 213.3 47.4703C214.471 48.5099 215.772 49.393 217.171 50.0972C217.252 50.1365 217.317 50.2021 217.356 50.2834C217.395 50.3647 217.405 50.4567 217.385 50.5444C217.364 50.6322 217.315 50.7104 217.244 50.7662C217.174 50.8221 217.086 50.8522 216.996 50.8518V50.8498ZM184.205 46.2492C184.132 46.2491 184.06 46.2289 183.998 46.1906C183.935 46.1524 183.885 46.0976 183.852 46.0324C183.818 45.9672 183.804 45.8941 183.809 45.8211C183.815 45.7482 183.841 45.6782 183.884 45.6189C184.83 44.3121 185.856 43.0646 186.956 41.8836C187.028 41.8092 187.127 41.7661 187.231 41.7636C187.335 41.761 187.435 41.7992 187.511 41.87C187.587 41.9408 187.632 42.0385 187.637 42.1422C187.642 42.246 187.606 42.3474 187.537 42.4249C186.46 43.5823 185.454 44.8046 184.527 46.0852C184.49 46.1356 184.441 46.1766 184.385 46.2047C184.329 46.2329 184.268 46.2474 184.205 46.2472V46.2492ZM209.754 44.6837C209.694 44.6838 209.634 44.67 209.58 44.6434C209.525 44.6168 209.478 44.5782 209.441 44.5304C208.441 43.2497 207.567 41.8759 206.83 40.4278C206.805 40.3811 206.789 40.3297 206.784 40.2768C206.779 40.2239 206.784 40.1705 206.8 40.1197C206.816 40.069 206.842 40.0219 206.876 39.9814C206.911 39.9408 206.953 39.9076 207 39.8836C207.048 39.8597 207.1 39.8455 207.153 39.842C207.206 39.8384 207.259 39.8456 207.309 39.863C207.359 39.8804 207.406 39.9078 207.445 39.9434C207.485 39.979 207.516 40.0222 207.539 40.0704C208.252 41.4729 209.099 42.8036 210.067 44.044C210.113 44.1026 210.141 44.1729 210.149 44.2469C210.157 44.3209 210.144 44.3955 210.111 44.4623C210.079 44.5292 210.028 44.5855 209.965 44.6249C209.902 44.6644 209.829 44.6853 209.754 44.6853V44.6837ZM225.668 44.2175C225.567 44.2177 225.469 44.1791 225.395 44.1096C225.321 44.0401 225.277 43.945 225.271 43.8438C225.191 42.2957 224.811 40.7778 224.152 39.3747C224.125 39.3273 224.108 39.2749 224.103 39.2207C224.097 39.1666 224.103 39.1119 224.119 39.0599C224.135 39.008 224.162 38.96 224.198 38.9189C224.233 38.8778 224.277 38.8445 224.326 38.821C224.375 38.7975 224.429 38.7843 224.483 38.7824C224.538 38.7804 224.592 38.7896 224.643 38.8095C224.693 38.8293 224.739 38.8594 224.778 38.8978C224.816 38.9362 224.847 38.9821 224.867 39.0327C225.571 40.5274 225.977 42.1447 226.064 43.7946C226.07 43.8997 226.035 44.003 225.965 44.0818C225.895 44.1606 225.797 44.2084 225.692 44.2147L225.668 44.2175ZM190.734 39.271C190.652 39.2711 190.572 39.2459 190.505 39.1988C190.438 39.1518 190.387 39.0851 190.359 39.008C190.332 38.9309 190.328 38.8471 190.35 38.7681C190.372 38.6892 190.418 38.6189 190.481 38.5669C191.729 37.5397 193.046 36.6 194.423 35.7545C194.467 35.723 194.518 35.7009 194.571 35.6896C194.624 35.6784 194.679 35.6781 194.732 35.689C194.786 35.6998 194.836 35.7215 194.881 35.7527C194.925 35.7838 194.963 35.8238 194.991 35.8702C195.02 35.9165 195.039 35.9682 195.046 36.0221C195.054 36.0759 195.05 36.1308 195.036 36.1832C195.022 36.2357 194.997 36.2846 194.963 36.327C194.928 36.3694 194.886 36.4043 194.838 36.4296C193.492 37.2558 192.205 38.1743 190.986 39.1785C190.915 39.2372 190.826 39.2693 190.734 39.269V39.271ZM205.502 36.1683C205.413 36.1683 205.327 36.1385 205.257 36.0838C205.187 36.0291 205.138 35.9526 205.117 35.8665C204.772 34.4906 204.595 33.0779 204.59 31.6595C204.59 31.4424 204.594 31.225 204.603 31.0074C204.604 30.9551 204.616 30.9036 204.638 30.8559C204.659 30.8083 204.69 30.7654 204.729 30.7299C204.767 30.6944 204.812 30.667 204.861 30.6492C204.911 30.6315 204.963 30.6238 205.015 30.6265C205.12 30.6308 205.22 30.6766 205.291 30.754C205.363 30.8314 205.4 30.9339 205.396 31.0392C205.388 31.2462 205.384 31.4529 205.384 31.6595C205.389 33.0138 205.558 34.3626 205.888 35.6763C205.913 35.7786 205.896 35.8866 205.842 35.9768C205.787 36.0669 205.699 36.1316 205.597 36.1568C205.566 36.1641 205.534 36.1673 205.502 36.1663V36.1683ZM221.625 35.8212C221.528 35.8212 221.435 35.7862 221.363 35.7228C220.185 34.7057 218.846 33.892 217.401 33.3154C217.352 33.2957 217.308 33.2667 217.271 33.23C217.234 33.1933 217.205 33.1497 217.185 33.1016C217.164 33.0535 217.154 33.0019 217.153 32.9497C217.153 32.8976 217.163 32.8459 217.183 32.7976C217.203 32.7493 217.232 32.7054 217.268 32.6683C217.305 32.6312 217.349 32.6017 217.397 32.5815C217.445 32.5613 217.496 32.5508 217.549 32.5505C217.601 32.5503 217.653 32.5603 217.701 32.58C219.228 33.1897 220.643 34.0501 221.887 35.1255C221.948 35.1788 221.991 35.2493 222.01 35.3276C222.03 35.406 222.025 35.4885 221.997 35.5641C221.968 35.6397 221.917 35.7049 221.851 35.7508C221.784 35.7967 221.706 35.8213 221.625 35.8212ZM198.883 34.2935C198.791 34.2935 198.703 34.2619 198.632 34.204C198.561 34.1462 198.512 34.0655 198.494 33.9759C198.476 33.8862 198.489 33.7929 198.531 33.7119C198.574 33.6308 198.643 33.5669 198.727 33.5311C200.216 32.8949 201.753 32.3771 203.323 31.9823C203.424 31.9588 203.531 31.9761 203.62 32.0304C203.709 32.0847 203.772 32.1718 203.798 32.2728C203.823 32.3739 203.808 32.4808 203.755 32.5706C203.702 32.6603 203.616 32.7257 203.515 32.7527C201.986 33.1375 200.489 33.6421 199.038 34.2618C198.989 34.2819 198.937 34.292 198.884 34.2915L198.883 34.2935ZM212.926 32.1408C212.908 32.1407 212.891 32.1395 212.873 32.1372C211.888 32.0069 210.896 31.9421 209.903 31.9434C209.326 31.9434 208.755 31.9632 208.172 32.0045C208.119 32.01 208.066 32.0048 208.015 31.9892C207.964 31.9735 207.917 31.9478 207.876 31.9136C207.835 31.8793 207.802 31.8372 207.778 31.7898C207.753 31.7423 207.739 31.6905 207.735 31.6374C207.732 31.5842 207.739 31.5309 207.756 31.4805C207.773 31.4302 207.8 31.3838 207.836 31.3442C207.872 31.3046 207.915 31.2725 207.963 31.2499C208.011 31.2273 208.064 31.2147 208.117 31.2127C208.718 31.1694 209.308 31.1432 209.904 31.1492C210.932 31.1479 211.96 31.215 212.979 31.3501C213.079 31.3636 213.17 31.4144 213.234 31.4923C213.297 31.5703 213.329 31.6695 213.323 31.7699C213.316 31.8703 213.271 31.9645 213.198 32.0333C213.125 32.1022 213.028 32.1406 212.927 32.1408H212.926ZM205.957 26.7455C205.892 26.7455 205.829 26.7298 205.772 26.6998C205.715 26.6697 205.666 26.6263 205.63 26.5732C205.593 26.52 205.57 26.4588 205.563 26.3948C205.555 26.3308 205.563 26.266 205.586 26.2058C205.765 25.7408 205.97 25.2754 206.197 24.8227C206.7 23.8212 207.256 22.847 207.861 21.9042C207.919 21.8164 208.008 21.7547 208.111 21.7328C208.214 21.7109 208.321 21.7304 208.409 21.7872C208.497 21.8439 208.559 21.9333 208.582 22.0357C208.604 22.1382 208.586 22.2454 208.529 22.3339C207.939 23.2528 207.397 24.2024 206.907 25.1785C206.692 25.6082 206.497 26.0498 206.328 26.489C206.299 26.5643 206.248 26.6292 206.182 26.675C206.116 26.7208 206.037 26.7454 205.957 26.7455ZM211.072 18.69C210.996 18.69 210.922 18.6681 210.858 18.6268C210.793 18.5855 210.743 18.5267 210.711 18.4573C210.679 18.388 210.668 18.3109 210.679 18.2355C210.69 18.1601 210.723 18.0894 210.773 18.032C211.837 16.8157 212.981 15.6722 214.197 14.6092C214.277 14.5398 214.381 14.5049 214.486 14.5122C214.591 14.5194 214.69 14.5681 214.759 14.6477C214.828 14.7273 214.863 14.8311 214.856 14.9365C214.849 15.0418 214.8 15.1399 214.72 15.2092C213.53 16.2481 212.411 17.3663 211.372 18.5561C211.334 18.5985 211.288 18.6323 211.237 18.6554C211.185 18.6785 211.129 18.6903 211.072 18.69ZM218.256 12.3857C218.171 12.3858 218.089 12.3585 218.02 12.308C217.952 12.2575 217.902 12.1864 217.877 12.1051C217.852 12.0239 217.853 11.9368 217.882 11.8566C217.91 11.7764 217.963 11.7075 218.034 11.6598C219.371 10.7574 220.759 9.93233 222.191 9.18853C222.237 9.16282 222.288 9.14665 222.341 9.14098C222.393 9.1353 222.447 9.14024 222.498 9.15551C222.548 9.17077 222.596 9.19604 222.636 9.22984C222.677 9.26364 222.711 9.30527 222.735 9.35228C222.76 9.3993 222.775 9.45075 222.779 9.50359C222.783 9.55643 222.777 9.6096 222.76 9.65996C222.744 9.71032 222.717 9.75686 222.683 9.79681C222.648 9.83677 222.605 9.86935 222.558 9.89262C221.153 10.6228 219.791 11.4325 218.478 12.3178C218.413 12.3621 218.335 12.3857 218.256 12.3857ZM226.739 7.95906C226.646 7.95911 226.556 7.92677 226.485 7.86764C226.414 7.80851 226.365 7.72631 226.348 7.63527C226.331 7.54423 226.346 7.45007 226.391 7.36909C226.436 7.28811 226.508 7.2254 226.595 7.19183C228.096 6.60626 229.627 6.09938 231.181 5.67325C231.283 5.64549 231.391 5.65925 231.483 5.7115C231.574 5.76374 231.641 5.85019 231.669 5.95183C231.697 6.05346 231.683 6.16196 231.631 6.25345C231.578 6.34494 231.492 6.41193 231.39 6.43968C229.863 6.85806 228.358 7.3562 226.882 7.93205C226.836 7.94992 226.788 7.95908 226.739 7.95906ZM250 5.79357C249.966 5.79357 249.933 5.78943 249.9 5.78126C248.451 5.41352 246.975 5.16384 245.485 5.03468C245.433 5.02999 245.383 5.01511 245.337 4.9909C245.29 4.96668 245.249 4.93361 245.216 4.89356C245.183 4.85351 245.157 4.80728 245.142 4.75749C245.126 4.70771 245.121 4.65535 245.125 4.60341C245.13 4.55147 245.145 4.50096 245.169 4.45477C245.193 4.40858 245.226 4.36761 245.266 4.3342C245.307 4.30079 245.353 4.27559 245.403 4.26005C245.452 4.24451 245.505 4.23893 245.557 4.24362C247.089 4.37697 248.608 4.63381 250.099 5.01165C250.193 5.03557 250.275 5.09295 250.329 5.17299C250.383 5.25303 250.407 5.35022 250.395 5.44628C250.383 5.54234 250.336 5.63065 250.263 5.69461C250.19 5.75857 250.097 5.79376 250 5.79357ZM235.968 5.43617C235.868 5.43673 235.771 5.39941 235.697 5.33167C235.623 5.26393 235.578 5.17079 235.57 5.07091C235.562 4.97104 235.592 4.87182 235.654 4.79315C235.716 4.71448 235.805 4.66216 235.904 4.6467C237.497 4.38758 239.103 4.22051 240.715 4.14633C240.767 4.1435 240.819 4.1511 240.869 4.16869C240.918 4.18628 240.963 4.21351 241.002 4.24878C241.04 4.28405 241.072 4.32666 241.093 4.37411C241.115 4.42157 241.128 4.47293 241.13 4.52518C241.132 4.57728 241.124 4.62933 241.106 4.67836C241.088 4.72739 241.061 4.77244 241.026 4.81094C240.991 4.84944 240.948 4.88063 240.901 4.90273C240.854 4.92484 240.803 4.93742 240.751 4.93977C239.17 5.01248 237.594 5.1765 236.032 5.43101C236.011 5.43378 235.989 5.43485 235.968 5.43418V5.43617Z" fill="#1E1E1E"/>
</g>
</svg>
